<?xml version="1.0" encoding="UTF-8"?>
<svg id="Capa_1" data-name="Capa 1" xmlns="http://www.w3.org/2000/svg" viewBox="0 0 42.49 42.49">
  <defs>
    <style>
      .cls-1 {
        fill: none;
        stroke: #1d1c22;
        stroke-miterlimit: 10;
      }

      .cls-2 {
        fill: #f7f7f7;
      }
    </style>
  </defs>
  <g>
    <path class="cls-2" d="M12.7,6.47c0-.47,0-.88,0-1.29,.01-.7,.44-1.12,1.14-1.13,4.94,0,9.87,0,14.81,0,.7,0,1.13,.43,1.14,1.13,0,.41,0,.82,0,1.28,.49,0,.96,0,1.43,0,1.46,.02,2.65,.99,2.95,2.41,.06,.28,.07,.58,.07,.87,0,8.47,0,16.94,0,25.41,0,1.76-.99,2.98-2.63,3.25-.22,.04-.45,.03-.67,.03-6.47,0-12.94,0-19.41,0-2.02,0-3.29-1.26-3.29-3.28,0-8.05,0-16.09,0-24.14,0-.59-.02-1.19,.02-1.78,.1-1.52,1.38-2.73,2.9-2.77,.49-.01,.98,0,1.52,0Zm0,2.15c-.53,0-1.03-.04-1.51,.02-.22,.02-.48,.18-.6,.36-.13,.21-.18,.5-.18,.76,0,5.04,0,10.07,0,15.11,0,3.45,0,6.89,0,10.34,0,.76,.33,1.08,1.09,1.08,.91,0,1.81,0,2.72,0,5.6,0,11.19,0,16.79-.01,.28,0,.59-.11,.83-.27,.3-.2,.27-.56,.27-.89,0-8.44,0-16.87,0-25.31,0-.15,0-.29-.02-.44-.05-.36-.31-.69-.66-.71-.53-.04-1.06-.01-1.62-.01,0,.4,0,.76,0,1.13,0,.92-.39,1.3-1.31,1.3-2.66,0-5.33,0-7.99,0-2.16,0-4.32,0-6.48,0-.94,0-1.31-.38-1.31-1.33,0-.36,0-.71,0-1.12Zm2.17,.27h12.75v-2.66H14.87v2.66Z"/>
    <path class="cls-2" d="M15.32,25.42c.85-.85,1.67-1.66,2.48-2.48,.26-.26,.55-.42,.92-.39,.44,.04,.76,.26,.92,.68,.16,.42,.08,.82-.23,1.15-.55,.56-1.1,1.11-1.66,1.66-.52,.52-1.04,1.05-1.57,1.56-.55,.55-1.16,.55-1.7,0-.64-.64-1.28-1.28-1.92-1.92-.49-.5-.52-1.17-.07-1.61,.44-.43,1.1-.4,1.58,.08,.41,.41,.82,.82,1.25,1.26Z"/>
    <path class="cls-2" d="M15.31,31.72c.87-.87,1.68-1.71,2.52-2.5,.2-.19,.51-.33,.79-.37,.45-.07,.8,.17,1,.58,.19,.41,.17,.83-.15,1.16-1.13,1.16-2.28,2.31-3.44,3.44-.39,.38-1.01,.37-1.4,0-.74-.71-1.47-1.44-2.18-2.18-.4-.42-.36-1.06,.04-1.46,.41-.41,1.05-.45,1.48-.03,.46,.43,.88,.89,1.35,1.38Z"/>
    <path class="cls-2" d="M15.35,19.11c.83-.83,1.65-1.65,2.47-2.47,.33-.33,.71-.46,1.16-.31,.77,.25,.99,1.19,.4,1.79-.67,.69-1.36,1.36-2.04,2.04-.4,.4-.8,.81-1.21,1.21-.5,.49-1.11,.5-1.61,.01-.68-.67-1.35-1.34-2.02-2.02-.46-.47-.46-1.13-.03-1.56,.44-.43,1.08-.42,1.56,.05,.42,.4,.83,.82,1.24,1.23,0,0,.02,0,.07,.03Z"/>
    <path class="cls-2" d="M25.77,20.07c-1.14,0-2.28,.01-3.42,0-.82-.01-1.33-.77-1.02-1.48,.15-.35,.42-.57,.8-.64,.13-.02,.27-.03,.4-.03,2.17,0,4.34,0,6.51,0,.2,0,.41,.01,.59,.08,.47,.15,.74,.63,.69,1.14-.05,.47-.44,.86-.93,.92-.12,.01-.25,.02-.37,.02-1.08,0-2.17,0-3.25,0h0Z"/>
    <path class="cls-2" d="M25.78,26.35c-1.12,0-2.24,0-3.36,0-.7,0-1.19-.45-1.18-1.09,0-.63,.48-1.06,1.17-1.06,2.25,0,4.5,0,6.74,0,.69,0,1.16,.45,1.17,1.07,0,.63-.47,1.08-1.15,1.08-1.13,0-2.26,0-3.39,0Z"/>
    <path class="cls-2" d="M25.79,32.64c-1.13,0-2.26,0-3.39,0-.73,0-1.21-.51-1.15-1.18,.04-.47,.4-.86,.86-.94,.1-.02,.2-.02,.3-.02,2.25,0,4.49,0,6.74,0,.65,0,1.1,.38,1.16,.93,.08,.67-.38,1.19-1.08,1.22-.42,.02-.85,0-1.27,0-.73,0-1.45,0-2.18,0Z"/>
  </g>
  <rect class="cls-1" x=".5" y=".5" width="41.49" height="41.49"/>
</svg>