<?xml version="1.0" encoding="UTF-8"?>
<svg id="Capa_1" data-name="Capa 1" xmlns="http://www.w3.org/2000/svg" viewBox="0 0 42.49 42.49">
  <defs>
    <style>
      .cls-1 {
        fill: none;
        stroke: #1d1c22;
        stroke-miterlimit: 10;
      }

      .cls-2 {
        fill: #f7f7f7;
      }
    </style>
  </defs>
  <g>
    <path class="cls-2" d="M7.26,21.24c0-4.75,0-9.49,0-14.24,0-1.4,.74-2.45,1.98-2.82,.28-.08,.58-.12,.87-.12,5.32,0,10.64,0,15.97,0,.82,0,1.51,.29,2.09,.87,2.06,2.07,4.13,4.13,6.2,6.19,.58,.58,.87,1.28,.87,2.09,0,7.46,0,14.93,0,22.39,0,1.65-1.19,2.83-2.85,2.83-7.42,0-14.84,0-22.26,0-1.7,0-2.86-1.19-2.86-2.92,0-3.88,0-7.76,0-11.64,0-.88,0-1.76,0-2.64Zm26.05-7.9h-.43c-1.89,0-3.79,0-5.68,0-.93,0-1.24-.31-1.24-1.23,0-1.91,0-3.81,0-5.72,0-.13,0-.26,0-.42-.18,0-.3,0-.42,0-5.08,0-10.17,0-15.25,0-.81,0-1.09,.28-1.09,1.1,0,9.45,0,18.9,0,28.34,0,.84,.28,1.11,1.11,1.11,7.29,0,14.59,0,21.88,0,.85,0,1.13-.28,1.13-1.14,0-7.2,0-14.41,0-21.61,0-.13,0-.27,0-.44Zm-1.54-1.92c-1.29-1.29-2.6-2.62-3.87-3.89v3.89h3.87Z"/>
    <path class="cls-2" d="M22.69,26.5c-.71,0-1.36,0-2.01-.01-.08,0-.19-.13-.24-.23-.22-.48-.43-.97-.63-1.46-.07-.18-.16-.26-.37-.25-1.09,.01-2.19,.01-3.28,0-.21,0-.29,.07-.37,.25-.2,.5-.42,1-.65,1.49-.04,.09-.16,.2-.25,.2-.63,.02-1.26,0-1.95,0,.04-.13,.07-.24,.11-.33,1.21-2.81,2.43-5.62,3.64-8.43,.09-.2,.18-.3,.42-.29,.48,.02,.97,0,1.45,.01,.1,0,.24,.08,.28,.17,1.28,2.93,2.54,5.86,3.84,8.87Zm-4.87-6.35c-.39,.91-.75,1.74-1.12,2.6h2.24c-.37-.87-.73-1.7-1.11-2.6Z"/>
    <path class="cls-2" d="M27.29,25.07h-1.78v-2.31h-2.24v-1.59h2.22v-2.32h1.79v2.31h2.25v1.58c-.6,0-1.2,0-1.79,0q-.46,0-.46,.45c0,.62,0,1.23,0,1.87Z"/>
  </g>
  <rect class="cls-1" x=".5" y=".5" width="41.49" height="41.49"/>
</svg>