<?xml version="1.0" encoding="UTF-8"?>
<svg id="Capa_1" data-name="Capa 1" xmlns="http://www.w3.org/2000/svg" viewBox="0 0 42.49 42.49">
  <defs>
    <style>
      .cls-1 {
        fill: none;
        stroke: #1d1c22;
        stroke-miterlimit: 10;
      }

      .cls-2 {
        fill: #f7f7f7;
      }
    </style>
  </defs>
  <rect class="cls-1" x=".5" y=".5" width="41.49" height="41.49"/>
  <g>
    <path class="cls-2" d="M29.85,25.54c0-1.14,0-2.24,0-3.33,0-.11,0-.23,0-.34,.05-.36,.36-.63,.72-.63,.36,0,.66,.27,.7,.64,.01,.11,0,.22,0,.34,0,3.17,0,6.33,0,9.5,0,.78-.22,.99-1,.99-2.38,0-4.77,0-7.15,0h-.44c0,.15,0,.27,0,.39,0,1.48,0,2.95,0,4.43,0,.35-.06,.65-.39,.82-.35,.18-.64,.03-.92-.19-.98-.79-1.97-1.58-2.98-2.39-.71,.56-1.4,1.12-2.1,1.68-.31,.25-.63,.5-.94,.75-.25,.21-.52,.31-.84,.16-.33-.15-.43-.43-.43-.77,0-1.48,0-2.95,0-4.43,0-.13,0-.27,0-.45-.15,0-.28,0-.41,0-1.5,0-3,0-4.5,0-1.8-.01-3.21-1.13-3.59-2.83-.06-.28-.1-.58-.1-.86,0-7.06,0-14.12,0-21.18,0-1.72,.92-3.08,2.46-3.58,.37-.12,.77-.19,1.15-.19,2.82-.02,5.64,0,8.46,0,.61,0,.99,.47,.78,.98-.14,.33-.41,.45-.75,.45-1.07,0-2.15,0-3.22,0-1.71,0-3.42,0-5.14,0-1.39,0-2.28,.9-2.28,2.29,0,6.03,0,12.06,0,18.09,0,.1,0,.2,0,.3,.04,0,.07,.02,.08,.02,.78-.53,1.66-.65,2.59-.65,6.6,.01,13.2,0,19.8,0,.13,0,.26,0,.44,0Zm-15.78,4.3c-.58,0-1.13,0-1.69,0-.15,0-.29,0-.44,0-.41-.02-.7-.32-.7-.71,0-.4,.27-.7,.69-.71,1.01-.02,2.01-.01,3.02-.01,2.29,0,4.59,0,6.88,0,1.01,0,2.01,0,3.02,0,.3,0,.51,.15,.64,.41,.23,.48-.12,1-.7,1.01-.69,.01-1.38,0-2.08,0v1.4h7.12v-4.27c-.14,0-.26,0-.38,0-6.71,0-13.43,0-20.14,0-.2,0-.4,.01-.6,.04-1.1,.17-1.82,1.14-1.75,2.33,.05,.98,.95,1.88,1.97,1.9,1.69,.03,3.38,0,5.07,0,.02,0,.04-.02,.08-.04v-1.38Zm1.5,.01v6.35c.77-.61,1.49-1.19,2.21-1.77,.5-.4,.74-.4,1.24,0,.27,.22,.54,.43,.81,.65,.46,.37,.92,.73,1.41,1.12v-6.35h-5.67Z"/>
    <path class="cls-2" d="M19.83,12.98c0-.6-.01-1.21,0-1.81,0-.23-.07-.36-.28-.46-.7-.3-1.38-.63-2.07-.95-.31-.14-.52-.35-.52-.71,0-.34,.21-.55,.51-.68,3.04-1.4,6.08-2.8,9.12-4.21,.28-.13,.53-.12,.8,0,3.03,1.4,6.06,2.8,9.09,4.2,.31,.14,.52,.36,.52,.71,0,.35-.22,.56-.53,.7-.67,.3-1.33,.63-2.01,.92-.23,.1-.33,.22-.33,.49,.02,1.13,0,2.26,0,3.39,0,.94-.39,1.62-1.2,2.09-2.05,1.18-4.23,1.84-6.62,1.69-2.03-.13-3.88-.81-5.59-1.89-.57-.36-.87-.93-.89-1.61-.02-.63,0-1.25,0-1.88,0,0,0,0,0,0Zm-.41-3.92c.1,.06,.16,.1,.23,.13,2.38,1.1,4.76,2.2,7.15,3.29,.12,.06,.32,.02,.46-.04,1.67-.76,3.33-1.53,4.99-2.29,.76-.35,1.51-.7,2.31-1.07-.1-.05-.15-.09-.21-.11-2.38-1.1-4.76-2.2-7.15-3.29-.13-.06-.35-.04-.49,.02-1.61,.73-3.21,1.47-4.81,2.21-.82,.38-1.64,.76-2.49,1.15Zm13.29,2.47c-.15,.06-.24,.1-.33,.14-1.56,.72-3.13,1.43-4.68,2.17-.5,.24-.92,.25-1.42,0-1.54-.74-3.1-1.44-4.65-2.16-.11-.05-.23-.1-.38-.16,0,1.11-.02,2.16,.02,3.21,0,.21,.17,.49,.35,.6,3.56,2.16,7.14,2.16,10.7,.02,.18-.11,.36-.38,.37-.59,.04-1.06,.02-2.12,.02-3.23Z"/>
  </g>
</svg>