<?xml version="1.0" encoding="UTF-8"?>
<svg id="Capa_1" data-name="Capa 1" xmlns="http://www.w3.org/2000/svg" viewBox="0 0 36.09 38.12">
  <defs>
    <style>
      .cls-1 {
        fill: #e6e9ee;
      }
    </style>
  </defs>
  <path class="cls-1" d="M20.25,38.12c-9.72-.11-17.05-5.53-19.47-13.91C-2.23,13.8,3.76,3.5,13.58,.46c.43-.13,.86-.26,1.3-.37,2.1-.52,3.97,1.3,3.5,3.42-.09,.39-.22,.78-.34,1.17-2.46,8.49,2.06,16.85,10.54,19.35,1.41,.41,2.92,.52,4.4,.61,1.21,.08,2.16,.47,2.74,1.53,.58,1.07,.45,2.11-.23,3.12-3.9,5.76-9.34,8.67-15.24,8.84Zm11.02-9.66c-5.95-.64-10.72-3.24-14.17-8.06-3.46-4.83-4.33-10.22-3.02-16.02-5.6,1.86-10.25,7.59-10.22,14.48,.03,6.85,4.55,12.9,11.04,14.79,6.62,1.93,13.15-.86,16.37-5.2Z"/>
</svg>