<?xml version="1.0" encoding="UTF-8"?>
<svg id="Capa_1" data-name="Capa 1" xmlns="http://www.w3.org/2000/svg" viewBox="0 0 42.25 35.25">
  <defs>
    <style>
      .cls-1 {
        fill: none;
        stroke: #1d1c22;
        stroke-miterlimit: 10;
        stroke-width: .25px;
      }

      .cls-2 {
        fill: #f7f7f7;
      }
    </style>
  </defs>
  <rect class="cls-1" x=".12" y=".12" width="42" height="35" rx="3.04" ry="3.04"/>
  <path class="cls-2" d="M24.45,24.55c-.2,1.05,.48,2.05,1.5,2.14,.9,.08,1.81,.03,2.72,.05,.48,.01,.98,0,1.44,.1,.72,.16,1.24,.91,1.25,1.63,0,.3-.13,.44-.42,.45-.1,0-.19,0-.29,0-6.36,0-12.72,0-19.08,0-.09,0-.17,0-.26,0-.33-.02-.44-.14-.44-.47,.01-.93,.81-1.7,1.8-1.72,1.06-.02,2.12,0,3.17,0,.75,0,1.35-.26,1.74-.92,.22-.38,.28-.79,.22-1.27h-.38c-2.24,0-4.47,0-6.71,0-1.33,0-2.06-.73-2.06-2.07,0-4.71,0-9.42,0-14.13,0-1.3,.73-2.03,2.02-2.03,6.95,0,13.91,0,20.86,0,1.27,0,2,.74,2,2.02,0,4.73,0,9.46,0,14.19,0,1.27-.74,2.02-2,2.02-2.25,0-4.49,0-6.74,0-.13,0-.25,0-.37,0Zm8.39-3.66c0-.14,0-.24,0-.35,0-4.06,0-8.12,0-12.18,0-.69-.41-1.32-1.32-1.32-6.94,.02-13.88,.02-20.83,0-.91,0-1.32,.62-1.32,1.32,.02,4.06,0,8.12,0,12.18,0,.11,0,.23,0,.35h23.45Zm-.02,.76H9.42c0,.43-.04,.84,.01,1.24,.08,.62,.55,.93,1.31,.93,6.92,0,13.85,0,20.77,0,.12,0,.24,0,.36-.02,.52-.07,.89-.4,.95-.91,.05-.4,0-.81,0-1.24Zm-21.12,6.51H30.54c-.15-.43-.49-.68-.93-.7-.3-.01-.6,0-.91,0-2.24,0-4.47,0-6.71,0-.33,0-.51-.13-.49-.37,.02-.3,.23-.36,.48-.35,.43,0,.86,0,1.3,0,.36,0,.72,0,1.17,0-.63-.65-.8-1.38-.77-2.17h-5.1c.04,.8-.16,1.52-.75,2.17,.21,0,.32,0,.44,0,.7,0,1.4,0,2.11,0,.23,0,.38,.12,.38,.35,0,.23-.14,.35-.36,.37-.1,0-.19,0-.29,0-1.53,0-3.07,0-4.6,0-.93,0-1.86,0-2.79,0-.49,0-.84,.25-1,.7Z"/>
</svg>