<?xml version="1.0" encoding="UTF-8"?>
<svg id="Capa_1" data-name="Capa 1" xmlns="http://www.w3.org/2000/svg" viewBox="0 0 42.49 42.49">
  <defs>
    <style>
      .cls-1 {
        fill: none;
        stroke: #1d1c22;
        stroke-miterlimit: 10;
      }

      .cls-2 {
        fill: #f7f7f7;
      }
    </style>
  </defs>
  <rect class="cls-1" x=".5" y=".5" width="41.49" height="41.49"/>
  <path class="cls-2" d="M38.44,21.27c0,4.35,0,8.7,0,13.06,0,1.82-1.04,3.31-2.73,3.88-.43,.15-.91,.21-1.36,.21-8.72,.01-17.44,.01-26.16,0-2.37,0-4.12-1.75-4.12-4.13,0-8.7,0-17.41,0-26.11,0-2.38,1.75-4.13,4.12-4.13,8.7,0,17.41,0,26.11,0,2.4,0,4.14,1.75,4.14,4.16,0,4.35,0,8.7,0,13.06Zm-15.88,14.47v-10.96h-3.97v-4.15h4.01c0-1.06-.05-2.07,0-3.08,.14-2.48,1.33-4.29,3.55-5.4,1.7-.85,3.53-.55,5.33-.6v4.13s-.06,.05-.07,.05c-.91,0-1.82,0-2.74,.03-.93,.02-1.75,.61-1.84,1.51-.11,1.1-.03,2.22-.03,3.38h4.77c-.23,1.4-.45,2.75-.68,4.15h-4.14v10.92c.18,0,.33,.02,.49,.02,2.29,0,4.58,0,6.87,0,1.16,0,1.62-.47,1.62-1.64,0-8.56,0-17.12,0-25.69,0-1.2-.46-1.67-1.65-1.67-8.56,0-17.12,0-25.69,0-1.19,0-1.66,.47-1.66,1.65,0,8.56,0,17.12,0,25.69,0,1.19,.47,1.66,1.66,1.66,4.05,0,8.1,0,12.15,0,.65,0,1.31,0,2,0Z"/>
</svg>