<?xml version="1.0" encoding="UTF-8"?>
<svg id="Capa_1" data-name="Capa 1" xmlns="http://www.w3.org/2000/svg" viewBox="0 0 28.85 28.85">
  <defs>
    <style>
      .cls-1 {
        fill: #e6e9ee;
      }

      .cls-2 {
        fill: none;
        stroke: #424249;
        stroke-miterlimit: 10;
      }
    </style>
  </defs>
  <rect class="cls-2" width="28.85" height="28.85"/>
  <g>
    <path class="cls-1" d="M16.79,19.61h-3.65c0,.11-.02,.21-.02,.31,0,1.9,0,3.8,0,5.7,0,.1,0,.2-.01,.3-.04,.23-.19,.36-.41,.35-.22,0-.37-.14-.39-.38,0-.1,0-.2,0-.3,0-3.41,0-6.81,0-10.22,0-.26-.08-.39-.31-.52-1.83-1.06-2.79-2.65-2.87-4.76-.03-.79,.53-1.38,1.27-1.39,.74-.01,1.3,.55,1.33,1.34,.02,.67,.23,1.28,.72,1.87-.09-.96,.19-1.71,.91-2.25,.49-.37,1.05-.5,1.66-.42,1.24,.17,2.08,1.3,1.97,2.62,.1-.16,.22-.3,.31-.47,.25-.45,.35-.94,.37-1.45,.02-.64,.5-1.17,1.1-1.25,.63-.08,1.28,.26,1.4,.88,.1,.48,.06,1.01-.03,1.49-.28,1.48-1.08,2.65-2.32,3.51-.16,.11-.21,.23-.21,.42,0,2.99,0,5.98,0,8.97,0,.11,0,.22-.02,.32-.04,.22-.19,.35-.42,.34-.22-.01-.36-.15-.37-.39,0-.09,0-.18,0-.27,0-1.35,0-2.7,0-4.05,0-.1,0-.21,0-.33Zm0-.84c0-.13,0-.23,0-.32,0-1.23,.01-2.47,0-3.7,0-.34,.12-.53,.4-.71,1.43-.91,2.18-2.23,2.25-3.93,.01-.35-.17-.57-.46-.58-.29-.01-.47,.2-.51,.54-.03,.31-.07,.63-.14,.93-.32,1.34-1.61,2.65-3.41,2.78-1.47,.11-2.97-.76-3.64-2.15-.24-.5-.35-1.04-.37-1.59-.01-.32-.2-.51-.48-.51-.29,0-.48,.21-.49,.53,0,.08,0,.16,0,.24,.17,1.86,1.09,3.21,2.77,4.02,.3,.15,.41,.33,.4,.65-.01,1.16,0,2.33,0,3.49,0,.1,0,.21,0,.32h3.67Zm-3.55-7.27c0,.82,.64,1.46,1.45,1.46,.79,0,1.45-.65,1.46-1.43,0-.8-.65-1.47-1.45-1.47-.81,0-1.46,.64-1.46,1.45Z"/>
    <path class="cls-1" d="M15.36,23.77c0,.68,0,1.35,0,2.03,0,.31-.16,.5-.41,.49-.24,0-.4-.18-.4-.48,0-1.36,0-2.72,0-4.08,0-.3,.16-.47,.4-.48,.25,0,.41,.18,.41,.49,0,.68,0,1.35,0,2.03Z"/>
    <path class="cls-1" d="M10.77,3.69c.11,0,.22-.01,.32,0,.21,.03,.34,.17,.35,.38,0,.23-.12,.38-.35,.41-.21,.02-.43,.02-.65,0-.22-.02-.36-.17-.36-.4,0-.23,.14-.36,.36-.4,.11-.02,.22,0,.32,0,0,0,0,0,0,0Z"/>
    <path class="cls-1" d="M15.63,7.36c-.09,0-.18,0-.27,0-.25-.02-.41-.19-.4-.42,0-.22,.17-.37,.41-.39,.18,0,.36,0,.54,0,.26,.01,.42,.18,.42,.41,0,.23-.16,.38-.42,.4-.09,0-.18,0-.27,0,0,0,0,0,0,0Z"/>
    <path class="cls-1" d="M17.38,5.61c0,.11,.01,.22,0,.32-.03,.21-.16,.34-.37,.35-.23,.01-.39-.11-.42-.33-.03-.23-.03-.47,0-.7,.02-.21,.18-.33,.39-.33,.22,0,.37,.13,.4,.36,.01,.11,0,.21,0,.32,0,0,0,0,0,0Z"/>
    <path class="cls-1" d="M12.5,2.75c0,.11,.01,.22,0,.32-.03,.21-.16,.34-.37,.35-.23,.01-.39-.11-.41-.33-.03-.23-.02-.47,0-.7,.02-.21,.18-.33,.39-.33,.22,0,.37,.13,.39,.36,.01,.11,0,.21,0,.32,0,0,0,0,0,0Z"/>
    <path class="cls-1" d="M12.51,5.42c0,.11,0,.22,0,.32-.02,.23-.17,.36-.39,.36-.22,0-.38-.12-.4-.35-.02-.21-.02-.43,0-.64,.02-.23,.2-.38,.42-.36,.23,.02,.36,.15,.38,.38,0,.1,0,.2,0,.3h0Z"/>
    <path class="cls-1" d="M13.43,4.49c-.1,0-.2,.01-.3,0-.23-.03-.36-.17-.36-.4,0-.23,.14-.37,.36-.4,.21-.02,.42-.02,.62,0,.22,.02,.36,.15,.37,.39,0,.22-.14,.39-.38,.41-.11,.01-.22,0-.32,0,0,0,0,0,0,0Z"/>
    <path class="cls-1" d="M18.33,6.55c.09,0,.18,0,.27,0,.24,.02,.4,.17,.4,.39,0,.23-.15,.4-.4,.42-.19,.01-.38,.01-.57,0-.24-.02-.39-.19-.39-.4,0-.21,.16-.38,.39-.4,.1,0,.2,0,.3,0Z"/>
    <path class="cls-1" d="M17.38,8.29c0,.1,0,.2,0,.3-.02,.23-.18,.39-.4,.39-.21,0-.39-.15-.41-.38-.01-.2-.02-.41,0-.62,.02-.23,.2-.38,.42-.36,.23,.02,.36,.15,.38,.38,0,.1,0,.2,0,.3,0,0,0,0,0,0Z"/>
    <path class="cls-1" d="M17.19,25.47c.22,0,.41,.2,.4,.42-.01,.21-.2,.39-.41,.38-.23,0-.4-.19-.39-.42,0-.23,.18-.38,.4-.38Z"/>
  </g>
</svg>