<?xml version="1.0" encoding="UTF-8"?>
<svg id="Capa_1" data-name="Capa 1" xmlns="http://www.w3.org/2000/svg" viewBox="0 0 28.85 28.85">
  <defs>
    <style>
      .cls-1 {
        fill: #e6e9ee;
      }

      .cls-2 {
        fill: none;
        stroke: #424249;
        stroke-miterlimit: 10;
      }
    </style>
  </defs>
  <rect class="cls-2" width="28.85" height="28.85"/>
  <g>
    <path class="cls-1" d="M15.46,11.62c-.27-.1-.38,0-.47,.21-.32,.72-.64,1.44-.98,2.15-.25,.52-.79,.83-1.3,.77-.59-.07-1.05-.36-1.2-.95-.08-.29-.08-.66,.03-.93,.42-1,.89-1.99,1.37-2.97,.3-.6,.82-.93,1.5-.94,.93-.01,1.87,0,2.8,0,.54,0,.95,.26,1.24,.67,.33,.46,.62,.95,.9,1.44,.26,.46,.6,.67,1.14,.64,.71-.04,1.42-.04,2.14-.03,1.01,.01,1.66,.97,1.31,1.92-.18,.5-.63,.85-1.2,.85-1.18,0-2.36,0-3.54-.04-.72-.02-1.05-.24-1.62-.99-.2,.44-.39,.85-.6,1.3,.62,.29,1.24,.56,1.85,.85,.67,.32,.94,.98,.7,1.67-.12,.36-.28,.7-.42,1.05-.42,1.02-.83,2.04-1.25,3.05-.26,.62-.75,.95-1.37,.93-.57-.02-1.09-.38-1.23-.96-.07-.3-.06-.68,.06-.96,.33-.84,.73-1.64,1.1-2.46,.04-.1,.09-.2,.14-.32-.2-.09-.38-.16-.6-.26-.2,.43-.4,.85-.6,1.27-.69,1.48-1.37,2.97-2.05,4.45-.28,.61-.82,.92-1.44,.85-.62-.07-1.1-.51-1.18-1.18-.03-.27,.04-.58,.15-.83,1.5-3.33,3.01-6.66,4.52-9.99,.04-.08,.07-.16,.11-.26Zm5.53,2.07s0,.01,0,.02c.57,0,1.14,.02,1.7-.01,.19-.01,.41-.11,.55-.25,.19-.18,.21-.44,.09-.68-.13-.26-.35-.4-.64-.4-.77,0-1.54,.03-2.3,.04-.67,.01-1.18-.26-1.52-.84-.27-.46-.55-.91-.82-1.37-.21-.36-.51-.54-.93-.54-.88,0-1.76,0-2.64,0-.47,0-.8,.22-1,.65-.42,.88-.84,1.77-1.25,2.65-.2,.43-.1,.8,.26,.97,.36,.17,.71,.02,.92-.42,.25-.53,.49-1.07,.75-1.6,.63-1.28,.24-1.04,1.68-1.06,.56,0,.68,.19,.44,.7-1.19,2.63-2.38,5.26-3.57,7.89-.42,.92-.84,1.84-1.25,2.76-.21,.48,0,.93,.47,1,.31,.05,.57-.11,.73-.46,.91-1.96,1.82-3.93,2.74-5.9,.19-.4,.33-.45,.73-.29,.3,.12,.59,.25,.89,.37,.44,.18,.49,.33,.29,.77-.43,.93-.86,1.85-1.29,2.78-.19,.42-.07,.8,.29,.96,.37,.17,.73-.02,.92-.46,.53-1.28,1.05-2.57,1.57-3.85,.2-.5,.08-.8-.41-1.03-.64-.29-1.27-.59-1.91-.88-.27-.12-.38-.3-.25-.58,.33-.74,.65-1.49,.99-2.22,.05-.11,.21-.24,.32-.24,.12,0,.28,.12,.36,.23,.15,.19,.24,.42,.36,.63,.25,.43,.61,.65,1.13,.63,.53-.02,1.07,0,1.6,0Z"/>
    <path class="cls-1" d="M20.81,6.95c0,1.04-.9,1.97-1.88,1.95-.98-.02-1.83-.94-1.83-1.97,0-1.05,.87-1.97,1.87-1.97,1,0,1.86,.93,1.85,1.98Zm-3.03-.01c0,.66,.57,1.25,1.18,1.25,.61,0,1.17-.62,1.16-1.27-.01-.63-.58-1.23-1.17-1.23-.61,0-1.18,.6-1.17,1.26Z"/>
    <path class="cls-1" d="M7.82,14.86c-.83,0-1.67,0-2.5,0-.25,0-.49-.03-.49-.35,0-.32,.24-.37,.49-.37,1.67,0,3.34,0,5.01,0,.26,0,.5,.07,.5,.37,0,.3-.23,.36-.49,.36-.83,0-1.67,0-2.5,0Z"/>
    <path class="cls-1" d="M9.98,16.52c-.68,0-1.35,0-2.03,0-.27,0-.48-.08-.48-.38,0-.27,.21-.36,.47-.36,1.37,0,2.73,0,4.1,0,.26,0,.48,.06,.47,.38,0,.31-.24,.35-.5,.35-.68,0-1.35,0-2.03,0Z"/>
    <path class="cls-1" d="M8.5,12.51c.62,0,1.24,0,1.87,0,.26,0,.45,.1,.45,.37,0,.26-.19,.35-.44,.35-1.27,0-2.53,0-3.8,0-.23,0-.43-.07-.43-.35,0-.29,.19-.37,.45-.37,.63,0,1.27,0,1.9,0Z"/>
  </g>
</svg>