<?xml version="1.0" encoding="UTF-8"?>
<svg id="Capa_1" data-name="Capa 1" xmlns="http://www.w3.org/2000/svg" viewBox="0 0 42.49 42.49">
  <defs>
    <style>
      .cls-1 {
        fill: none;
        stroke: #1d1c22;
        stroke-miterlimit: 10;
      }

      .cls-2 {
        fill: #f7f7f7;
      }
    </style>
  </defs>
  <rect class="cls-1" x=".5" y=".5" width="41.49" height="41.49"/>
  <g>
    <path class="cls-2" d="M21.24,38.41c-2.49,0-4.99,.01-7.48,0-3.69-.02-6.51-1.61-8.42-4.77-.88-1.45-1.27-3.06-1.27-4.76,0-5.1-.03-10.2,0-15.3,.03-4.71,3.38-8.67,7.88-9.38,.6-.09,1.21-.14,1.81-.14,4.99-.01,9.98-.01,14.97,0,4.37,0,7.93,2.54,9.25,6.7,.3,.93,.41,1.95,.42,2.92,.04,5.04,.03,10.07,.02,15.11-.01,4.73-3.25,8.66-7.78,9.46-.64,.11-1.3,.15-1.96,.16-2.48,.02-4.96,0-7.44,0Zm.02-3.05c2.53,0,5.05,.01,7.58,0,3.71-.03,6.5-2.79,6.52-6.49,.02-5.1,.03-10.2,0-15.3-.02-3.65-2.81-6.43-6.46-6.45-5.1-.02-10.2-.02-15.3,0-3.67,.02-6.46,2.81-6.47,6.48-.02,5.09-.02,10.17,0,15.26,0,.68,.1,1.38,.31,2.02,.9,2.76,3.27,4.46,6.19,4.48,2.54,.02,5.09,0,7.63,0Z"/>
    <path class="cls-2" d="M30.08,21.26c-.01,4.89-3.97,8.83-8.86,8.82-4.89-.01-8.83-3.97-8.82-8.86,.01-4.89,3.97-8.83,8.86-8.82,4.89,.01,8.83,3.97,8.82,8.86Zm-8.9,5.77c3.17,.07,5.78-2.49,5.85-5.73,.07-3.17-2.5-5.79-5.73-5.85-3.18-.06-5.79,2.5-5.85,5.73-.06,3.17,2.49,5.78,5.73,5.85Z"/>
    <path class="cls-2" d="M30.45,14.25c-1.24,0-2.21-.98-2.2-2.22,0-1.23,1-2.22,2.22-2.23,1.24,0,2.25,1.03,2.24,2.26-.02,1.24-1,2.19-2.25,2.18Z"/>
  </g>
</svg>