<?xml version="1.0" encoding="UTF-8"?>
<svg id="Capa_1" data-name="Capa 1" xmlns="http://www.w3.org/2000/svg" viewBox="0 0 36.19 36.19">
  <defs>
    <style>
      .cls-1 {
        fill: #e6e9ee;
      }
    </style>
  </defs>
  <path class="cls-1" d="M18.09,36.19c-.88,0-1.6-.72-1.6-1.6v-4.12c0-.88,.72-1.6,1.6-1.6s1.6,.72,1.6,1.6v4.12c0,.88-.72,1.6-1.6,1.6Zm11.66-4.83c-.41,0-.82-.16-1.13-.47l-2.92-2.92c-.62-.62-.62-1.64,0-2.26,.62-.62,1.64-.62,2.26,0l2.92,2.92c.62,.62,.62,1.64,0,2.26-.31,.31-.72,.47-1.13,.47Zm-23.33,0c-.41,0-.82-.16-1.13-.47-.62-.62-.62-1.64,0-2.26l2.92-2.92c.62-.62,1.64-.62,2.26,0s.62,1.64,0,2.26l-2.92,2.92c-.31,.31-.72,.47-1.13,.47Zm11.66-4.79c-4.67,0-8.47-3.8-8.47-8.47s3.8-8.47,8.47-8.47,8.47,3.8,8.47,8.47-3.8,8.47-8.47,8.47Zm0-13.75c-2.91,0-5.27,2.37-5.27,5.27s2.37,5.27,5.27,5.27,5.27-2.37,5.27-5.27-2.37-5.27-5.27-5.27Zm16.5,6.87h-4.12c-.88,0-1.6-.72-1.6-1.6s.72-1.6,1.6-1.6h4.12c.88,0,1.6,.72,1.6,1.6s-.72,1.6-1.6,1.6Zm-28.87,0H1.6c-.88,0-1.6-.72-1.6-1.6s.72-1.6,1.6-1.6H5.72c.88,0,1.6,.72,1.6,1.6s-.72,1.6-1.6,1.6ZM26.84,10.95c-.41,0-.82-.16-1.13-.47-.62-.62-.62-1.64,0-2.26l2.92-2.92c.62-.62,1.64-.62,2.26,0,.62,.62,.62,1.64,0,2.26l-2.92,2.92c-.31,.31-.72,.47-1.13,.47Zm-17.5,0c-.41,0-.82-.16-1.13-.47l-2.92-2.92c-.62-.62-.62-1.64,0-2.26,.62-.62,1.64-.62,2.26,0l2.92,2.92c.62,.62,.62,1.64,0,2.26-.31,.31-.72,.47-1.13,.47Zm8.75-3.62c-.88,0-1.6-.72-1.6-1.6V1.6c0-.88,.72-1.6,1.6-1.6s1.6,.72,1.6,1.6V5.72c0,.88-.72,1.6-1.6,1.6Z"/>
</svg>