<?xml version="1.0" encoding="UTF-8"?>
<svg id="Capa_1" data-name="Capa 1" xmlns="http://www.w3.org/2000/svg" viewBox="0 0 98.24 110.28">
  <path fill="#e6e9ee" d="M44.18,1.83c.1-.04,.2-.08,.28-.13,3.78-2.42,6.73-2.26,10.3,.54,.11,.09,.23,.15,.35,.23,3.18,3.09,4.6,7.2,6.39,11.09,5.02,10.94,9.88,21.96,14.66,33,4.07,9.4,8.06,18.83,12.07,28.26,2.69,6.32,5.31,12.66,8.04,18.96,1.66,3.84,2.7,7.71,1.34,11.87-2.83,5.77-9.79,5.69-14.31,2.31-1.28-.96-2.32-2.13-3.29-3.39-.67-.86-1.39-1.68-2.08-2.51-.47-.57-.92-1.15-1.41-1.69-4.38-4.87-9.17-9.24-15.1-12.18-6.75-3.35-13.69-4.06-20.84-1.35-7.79,2.95-13.81,8.27-19.24,14.38,0,0,0,0,0,0-.11,.14-.23,.28-.34,.41-1.29,1.44-2.57,2.89-3.89,4.31-1.75,1.87-3.86,3.14-6.37,3.75-3.76,.92-6.68-.44-9.09-3.26-.3-.35-.55-.73-.83-1.09,0,0-.01-.03-.01-.03,0,0-.03-.07-.03-.07-.12-.25-.24-.5-.36-.75-.42-1.35-.42-2.73-.38-4.12,1.17-4.35,3.21-8.36,4.93-12.49,3.29-7.9,6.68-15.75,10.04-23.62,4.67-10.95,9.39-21.87,14.23-32.75,3.51-7.88,7.07-15.74,10.72-23.55,1.07-2.29,2.42-4.36,4.24-6.12Z"/>
  <path fill="#e6e9ee" d="M20.98,101.63c.11-.14,.23-.28,.34-.41-.11,.14-.23,.28-.34,.41Z"/>
  <path fill="#e6e9ee" d="M.79,105.3s.01,.03,.01,.03c0,0-.01-.03-.01-.03Z"/>
</svg>
