<?xml version="1.0" encoding="UTF-8"?>
<svg id="Capa_1" data-name="Capa 1" xmlns="http://www.w3.org/2000/svg" viewBox="0 0 42.49 42.49">
  <defs>
    <style>
      .cls-1 {
        fill: none;
        stroke: #1d1c22;
        stroke-miterlimit: 10;
      }

      .cls-2 {
        fill: #f7f7f7;
      }
    </style>
  </defs>
  <rect class="cls-1" x=".5" y=".5" width="41.49" height="41.49"/>
  <g>
    <path class="cls-2" d="M28.46,6.22c-3.03,0-6.06-.01-9.09,0-.91,0-1.63,.78-1.67,1.69-.01,.31,0,.63,0,.94,0,1.82,0,3.65,0,5.47,0,.57-.29,1-.76,1.14-.72,.23-1.39-.29-1.39-1.09,0-2.14,0-4.27,0-6.41,0-.21,.01-.43,.05-.63,.37-1.96,1.95-3.27,3.96-3.27,5.29,0,10.58,0,15.88,0,1.79,0,3.02,1.22,3.02,3.01,0,8.5,0,17.01,0,25.51,0,1.41-.76,2.45-2.1,2.9-.85,.28-1.7,.57-2.54,.85-1.94,.65-3.88,1.3-5.82,1.94-1.73,.57-3.46-.41-3.8-2.15-.08-.42-.04-.87-.06-1.3,0-.22,0-.44,0-.67-1.53,0-3.01,0-4.49,0-2.41,0-4.1-1.69-4.11-4.09,0-1.73,0-3.47,0-5.2,0-.39-.01-.78,0-1.17,.02-.45,.27-.76,.68-.92,.42-.17,.81-.07,1.14,.24,.26,.25,.32,.57,.32,.92,0,2.05,0,4.1,0,6.14,0,1.19,.74,1.92,1.93,1.93,1.39,0,2.77,0,4.16,0,.11,0,.22-.01,.35-.02,0-.17,0-.31,0-.45,0-7.16,0-14.32,0-21.48,0-1.58,.7-2.55,2.21-3.06,.71-.24,1.42-.47,2.13-.71,0-.02,0-.04,0-.06Zm-2.18,28.87c0,.09,0,.18,0,.27,0,.79,.4,1.08,1.14,.83,1.94-.65,3.88-1.29,5.82-1.94,.81-.27,1.61-.54,2.42-.81,.49-.16,.64-.38,.64-.89,0-8.49,0-16.99,0-25.48,0-.69-.43-1-1.08-.79-2.77,.92-5.53,1.84-8.3,2.76-.5,.17-.64,.37-.64,.93,0,4.24,0,8.48,0,12.72,0,4.13,0,8.26,0,12.39Z"/>
    <path class="cls-2" d="M7.75,20.18c.55,0,1.02,0,1.49,0,3.14,0,6.29,0,9.43,0,.8,0,1.32-.66,1.1-1.39-.14-.47-.55-.76-1.1-.76-1.87,0-3.74,0-5.61,0-1.74,0-3.49,0-5.32,0,.12-.13,.19-.21,.27-.29,1.08-1.08,2.15-2.15,3.23-3.23,.35-.36,.43-.81,.23-1.23-.19-.41-.62-.68-1.06-.6-.24,.04-.51,.15-.68,.32-1.8,1.77-3.59,3.56-5.37,5.35-.43,.43-.43,1.08,0,1.51,1.79,1.8,3.59,3.59,5.39,5.38,.44,.43,1.09,.42,1.51,0,.43-.43,.43-1.08-.01-1.53-1.06-1.07-2.13-2.14-3.2-3.21-.08-.08-.17-.17-.3-.32Z"/>
  </g>
</svg>