<?xml version="1.0" encoding="UTF-8"?>
<svg id="Capa_1" data-name="Capa 1" xmlns="http://www.w3.org/2000/svg" viewBox="0 0 34.23 33.68">
  <defs>
    <style>
      .cls-1 {
        fill: #c6c6c6;
      }
    </style>
  </defs>
  <path class="cls-1" d="M22.64,23.78c-6.36,5.4-14.85,3.89-19.27-1.23C-1.22,17.24-1.11,9.4,3.62,4.34,8.37-.74,16.09-1.44,21.66,2.65c5.75,4.22,7.6,12.84,2.56,19.48,1.07,1.01,2.18,2.03,3.25,3.09,2.05,2.03,4.07,4.08,6.11,6.12,.07,.07,.14,.14,.21,.21,.55,.6,.6,1.31,.12,1.79-.48,.48-1.21,.45-1.79-.12-1.41-1.4-2.8-2.82-4.21-4.22-1.74-1.73-3.49-3.46-5.27-5.22Zm-9.05,1.03c6.16,0,11.21-5.03,11.22-11.18,.01-6.2-5-11.26-11.2-11.29-6.16-.03-11.27,5.06-11.27,11.23,0,6.18,5.06,11.24,11.25,11.24Z"/>
  <path class="cls-1" d="M13.56,3.86c2.1,.02,4.01,.6,5.72,1.83,.72,.52,.91,1.18,.5,1.78-.41,.6-1.09,.67-1.83,.18-2.55-1.72-5.19-1.93-7.94-.51-.8,.41-1.47,.28-1.82-.34-.36-.64-.09-1.31,.73-1.76,1.44-.79,3-1.16,4.64-1.18Z"/>
</svg>