<?xml version="1.0" encoding="UTF-8"?>
<svg id="Capa_1" data-name="Capa 1" xmlns="http://www.w3.org/2000/svg" viewBox="0 0 42.49 42.49">
  <defs>
    <style>
      .cls-1 {
        fill: none;
        stroke: #1d1c22;
        stroke-miterlimit: 10;
      }

      .cls-2 {
        fill: #f7f7f7;
      }
    </style>
  </defs>
  <g>
    <path class="cls-2" d="M24.19,38.44c-.68,0-1.36,0-2.04,0-.79-.01-1.31-.51-1.32-1.3-.02-1.36-.03-2.73,.01-4.09,.01-.33,.18-.74,.41-.97,3.43-3.48,6.88-6.94,10.34-10.4,1.15-1.14,2.89-1.14,4.07-.03,.65,.61,1.28,1.24,1.89,1.89,1.21,1.29,1.19,3-.06,4.25-3.41,3.41-6.83,6.81-10.25,10.21-.3,.29-.64,.44-1.05,.44-.67,0-1.34,0-2.01,0Zm8.47-9.39c-.83-.83-1.62-1.62-2.43-2.43-.02,.01-.06,.04-.1,.07-2.21,2.22-4.42,4.43-6.62,6.65-.08,.08-.16,.19-.16,.29-.01,.74,0,1.49,0,2.27,.73,0,1.42,.02,2.11-.01,.18,0,.41-.1,.54-.23,1.69-1.66,3.37-3.34,5.04-5.01,.55-.54,1.09-1.09,1.62-1.62Zm1.88-1.83c.41-.42,.83-.84,1.23-1.27,.19-.2,.21-.43,.01-.63-.61-.62-1.22-1.23-1.83-1.83-.18-.18-.41-.2-.6-.02-.44,.42-.87,.86-1.3,1.28,.83,.83,1.63,1.62,2.49,2.47Z"/>
    <path class="cls-2" d="M17.08,20.88c1.51,0,3.02-.06,4.52,.02,.84,.05,1.67,.29,2.49,.52,.67,.19,.99,.87,.8,1.53-.18,.63-.85,1.05-1.51,.84-1.35-.43-2.73-.46-4.12-.45-1.99,.01-3.98,0-5.98-.01-3.78-.02-6.78,2.99-6.72,6.77,0,.48,.03,.97,.09,1.45,.18,1.5,1.09,2.42,2.59,2.62,.43,.06,.86,.08,1.29,.08,2.16,0,4.32,0,6.49,0,.6,0,1.09,.37,1.24,.9,.15,.52-.03,1.09-.5,1.38-.21,.13-.49,.22-.73,.23-2.37,.01-4.74,.03-7.12-.01-.7-.01-1.41-.14-2.08-.34-2.01-.6-3.2-2.01-3.58-4.03-.52-2.78-.05-5.41,1.53-7.77,1.44-2.16,3.55-3.33,6.08-3.61,1.73-.19,3.48-.16,5.22-.22,0,.04,0,.08,0,.12Z"/>
    <path class="cls-2" d="M17.06,18.31c-3.88,.01-7.1-3.17-7.12-7.05-.02-3.96,3.14-7.19,7.04-7.21,4.02-.01,7.21,3.15,7.21,7.15,0,3.92-3.17,7.09-7.13,7.1Zm0-2.52c2.57,0,4.62-2.05,4.61-4.61,0-2.55-2.07-4.6-4.64-4.6-2.5,0-4.57,2.08-4.57,4.59,0,2.57,2.04,4.63,4.6,4.63Z"/>
  </g>
  <rect class="cls-1" x=".5" y=".5" width="41.49" height="41.49"/>
</svg>