<?xml version="1.0" encoding="UTF-8"?>
<svg id="Capa_1" data-name="Capa 1" xmlns="http://www.w3.org/2000/svg" viewBox="0 0 41.28 41.29">
  <defs>
    <style>
      .cls-1 {
        fill: #ccc;
      }
    </style>
  </defs>
  <path class="cls-1" d="M20.61,41.29c-5.05,0-9.91-1.85-13.68-5.21,0,0-.02-.01-.02-.02-.6-.53-1.16-1.1-1.69-1.69C-2.36,25.86-1.59,12.78,6.92,5.21,15.42-2.35,28.5-1.59,36.07,6.91c7.55,8.49,6.8,21.53-1.65,29.1-.03,.03-.07,.06-.1,.09-3.77,3.34-8.61,5.18-13.65,5.18h-.06Zm-10.38-6.62c2.99,2.23,6.63,3.44,10.39,3.44,.02,0,.03,0,.05,0,3.77,0,7.4-1.21,10.39-3.44-2.68-2.84-6.46-4.5-10.4-4.5h-.02c-3.94,0-7.73,1.66-10.41,4.5ZM20.63,3.17c-4.13,0-8.28,1.45-11.6,4.41C1.83,13.99,1.18,25.05,7.58,32.25c.09,.1,.18,.2,.27,.3,3.28-3.51,7.93-5.56,12.77-5.56h.03c4.84,0,9.49,2.05,12.77,5.56,6.08-6.51,6.31-16.74,.27-23.53-3.45-3.87-8.25-5.85-13.06-5.85Zm.01,20.64c-4.38,0-7.94-3.56-7.94-7.94s3.56-7.94,7.94-7.94,7.94,3.56,7.94,7.94-3.56,7.94-7.94,7.94Zm0-12.71c-2.63,0-4.77,2.14-4.77,4.77s2.14,4.77,4.77,4.77,4.77-2.14,4.77-4.77-2.14-4.77-4.77-4.77Z"/>
</svg>