<?xml version="1.0" encoding="UTF-8"?>
<svg id="Capa_1" data-name="Capa 1" xmlns="http://www.w3.org/2000/svg" viewBox="0 0 42.49 42.49">
  <defs>
    <style>
      .cls-1 {
        fill: none;
        stroke: #1d1c22;
        stroke-miterlimit: 10;
      }

      .cls-2 {
        fill: #f7f7f7;
      }
    </style>
  </defs>
  <g>
    <path class="cls-2" d="M21.27,30.29c-4.97,0-9.95-.03-14.92,.02-1.52,.01-2.31-.98-2.31-2.29,.03-7.24,.01-14.47,.01-21.71,0-1.49,.76-2.25,2.24-2.25,9.97,0,19.95,0,29.92,0,1.45,0,2.23,.77,2.23,2.22,0,7.26,0,14.53,0,21.79,0,1.46-.76,2.23-2.22,2.23-4.99,0-9.97,0-14.96,0Zm-.05-1.81c4.94,0,9.89,0,14.83,0q.56,0,.56-.54c0-7.18,0-14.36,0-21.54,0-.41-.09-.55-.53-.55-9.89,.01-19.78,.01-29.67,0-.42,0-.55,.09-.55,.54,.01,7.19,.01,14.39,0,21.58,0,.4,.09,.53,.51,.52,4.94-.01,9.89,0,14.83,0Z"/>
    <path class="cls-2" d="M11.31,36.63c0,.28,0,.52,0,.76-.02,.71-.35,1.04-1.05,1.04-1.12,0-2.23,0-3.35,0-.71,0-1.02-.33-1.03-1.04,0-.24,0-.47,0-.76-.32,0-.6,0-.88,0-.54-.02-.93-.4-.94-.9,0-.49,.38-.88,.92-.9,.28-.01,.56,0,.89,0,0-.33,0-.61,0-.89,.02-.56,.34-.92,.89-.93,1.2-.02,2.4-.02,3.6,0,.57,0,.9,.37,.93,.95,.01,.27,0,.53,0,.86h.57c8.41,0,16.81,0,25.22,0,.17,0,.34,0,.51,.01,.47,.04,.81,.41,.83,.87,.01,.45-.32,.85-.78,.92-.17,.02-.34,.01-.51,.01-8.42,0-16.84,0-25.26,0h-.58Zm-3.6-1.78v1.75h1.74v-1.75h-1.74Z"/>
    <path class="cls-2" d="M14.91,17.16c0-2.19,0-4.38,0-6.57,0-.58,.18-.94,.61-1.04,.25-.06,.58-.03,.8,.09,3.87,2.21,7.73,4.44,11.59,6.67,.8,.46,.78,1.26-.03,1.73-3.82,2.21-7.65,4.42-11.47,6.62-.81,.47-1.5,.05-1.5-.9,0-2.2,0-4.41,0-6.61Zm1.86-5.18v10.4c3.02-1.74,5.99-3.46,9-5.2-3.03-1.75-5.99-3.46-9-5.2Z"/>
  </g>
  <rect class="cls-1" x=".5" y=".5" width="41.49" height="41.49"/>
</svg>