<?xml version="1.0" encoding="UTF-8"?>
<svg id="Capa_1" data-name="Capa 1" xmlns="http://www.w3.org/2000/svg" viewBox="0 0 42.25 35.25">
  <defs>
    <style>
      .cls-1 {
        fill: none;
        stroke: #1d1c22;
        stroke-miterlimit: 10;
        stroke-width: .25px;
      }

      .cls-2 {
        fill: #f7f7f7;
      }
    </style>
  </defs>
  <rect class="cls-1" x=".12" y=".12" width="42" height="35" rx="3.04" ry="3.04"/>
  <g>
    <path class="cls-2" d="M21.71,20.48v2.06c.14,0,.27,0,.4,0,1.37,0,2.74,0,4.11,0,.55,0,.73,.17,.73,.72,0,1.36,0,2.71,0,4.07,0,.55-.18,.73-.72,.73-3.28,0-6.55,0-9.83,0-.55,0-.73-.17-.73-.72,0-1.36,0-2.71,0-4.07,0-.56,.18-.72,.73-.72,1.25,0,2.49,0,3.74,0,.13,0,.26,0,.42,0v-2.06c-.13,0-.27,0-.41,0-2.11,0-4.23,0-6.34,0-2.88,0-5.21-1.59-6.3-4.25-1.38-3.39,.57-7.56,4.08-8.61,.73-.22,1.51-.32,2.27-.34,1.53-.05,3.05-.02,4.58-.01,.1,0,.2,0,.29,.01,.31,.05,.5,.24,.5,.54,0,.3-.19,.5-.49,.54-.12,.02-.24,.01-.37,.01-1.55,0-3.1-.02-4.66,0-2.57,.03-4.58,1.56-5.33,4.02-.81,2.68,.78,5.79,3.45,6.64,.64,.2,1.34,.33,2.01,.33,4.88,.03,9.75,.02,14.63,.01,2.79,0,5.08-1.85,5.55-4.45,.62-3.42-1.85-6.48-5.33-6.55-1.58-.03-3.15,0-4.73,0-.11,0-.22,0-.33,0-.34-.03-.57-.27-.57-.56,0-.29,.24-.51,.59-.54,.04,0,.07,0,.11,0,1.69,0,3.37-.03,5.06,.02,3.73,.11,6.57,3.21,6.4,6.93-.15,3.45-3.01,6.22-6.52,6.27-2.17,.03-4.35,0-6.53,0-.14,0-.29,0-.45,0Zm4.13,3.19h-9.03v3.26h9.01c0-.1,.02-.18,.02-.27,0-.99,0-1.97,0-2.99Z"/>
    <path class="cls-2" d="M21.14,18.17c-2.37,0-4.32-1.93-4.32-4.3,0-2.38,1.92-4.31,4.3-4.32,2.39,0,4.32,1.92,4.32,4.3,0,2.38-1.92,4.31-4.3,4.32Zm-.01-1.11c1.76,0,3.19-1.42,3.21-3.18,.01-1.77-1.43-3.22-3.2-3.22-1.76,0-3.2,1.42-3.21,3.18-.01,1.77,1.43,3.22,3.2,3.22Z"/>
    <path class="cls-2" d="M27.4,11.72c0-1.08,.88-1.95,1.97-1.94,1.06,.01,1.93,.9,1.93,1.95,0,1.07-.9,1.95-1.98,1.94-1.07,0-1.92-.88-1.92-1.95Zm1.11-.01c0,.46,.36,.84,.82,.85,.45,0,.85-.37,.86-.82,.01-.45-.37-.84-.83-.85-.46,0-.84,.36-.85,.82Z"/>
    <path class="cls-2" d="M11.19,13.43c.29,0,.58-.01,.88,0,.32,.02,.52,.2,.55,.52,.03,.28-.19,.55-.51,.56-.62,.02-1.24,.03-1.86,0-.33-.01-.51-.27-.49-.57,.03-.34,.23-.5,.55-.51,.29-.01,.58,0,.88,0,0,0,0,0,0,0Z"/>
    <path class="cls-2" d="M21.68,7.75c0,.3-.26,.55-.56,.54-.29,0-.53-.25-.53-.54,0-.31,.24-.56,.55-.56,.31,0,.55,.25,.55,.56Z"/>
    <path class="cls-2" d="M14.54,14.51c-.31,0-.55-.26-.54-.57,.01-.3,.26-.52,.55-.52,.31,0,.56,.26,.54,.57-.01,.3-.26,.53-.55,.52Z"/>
    <path class="cls-2" d="M21.13,11.82c1.12,0,2.05,.93,2.05,2.05,0,1.11-.97,2.06-2.07,2.04-1.1-.02-2.03-.95-2.03-2.05,0-1.12,.93-2.05,2.05-2.05Zm.01,1.11c-.51,0-.94,.4-.96,.91-.02,.5,.44,.97,.94,.97,.49,0,.94-.44,.94-.93,0-.5-.43-.93-.93-.94Z"/>
  </g>
</svg>