<?xml version="1.0" encoding="UTF-8"?>
<svg id="Capa_1" data-name="Capa 1" xmlns="http://www.w3.org/2000/svg" viewBox="0 0 26.36 26.92">
  <defs>
    <style>
      .cls-1 {
        fill: #e6e9ee;
      }

      .cls-2 {
        fill: #0f0e11;
      }
    </style>
  </defs>
  <path class="cls-1" d="M25.46,.12c-3.29,3.82-6.49,7.53-9.72,11.28,3.52,5.1,7.02,10.18,10.62,15.4-.41,.05-.68,.1-.95,.1-1.99,0-3.98-.02-5.98,.02-.64,.01-1.02-.2-1.38-.73-1.99-2.94-4.03-5.85-6.05-8.77-.19-.27-.39-.53-.64-.87-.27,.28-.5,.5-.71,.75-2.48,2.86-5.02,5.67-7.4,8.61-.88,1.09-1.82,1.09-3.15,.9,3.45-4,6.8-7.88,10.21-11.83C6.91,10.04,3.53,5.14,0,.01c.65,0,1.06,0,1.47,0,1.86,0,3.72-.04,5.58,.03,.44,.02,1.02,.32,1.27,.67,1.95,2.73,3.83,5.5,5.74,8.26,.18,.27,.39,.52,.66,.89,1.03-1.19,1.99-2.31,2.96-3.43,1.56-1.81,3.21-3.55,4.67-5.44,.85-1.11,1.82-1.06,3.11-.86Zm-2.38,25.12c-.09-.26-.1-.36-.15-.43C17.65,17.29,12.38,9.76,7.09,2.24c-.14-.2-.38-.46-.58-.47-1.04-.05-2.08-.02-3.34-.02,1.38,1.97,2.61,3.73,3.85,5.48,3.98,5.68,7.96,11.36,11.96,17.02,.28,.4,.71,.88,1.13,.95,.94,.14,1.91,.04,2.98,.04Z"/>
  <path class="cls-2" d="M23.08,25.25c-1.07,0-2.04,.1-2.98-.04-.42-.06-.85-.55-1.13-.95-4-5.66-7.98-11.35-11.96-17.02-1.23-1.76-2.47-3.52-3.85-5.48,1.26,0,2.3-.03,3.34,.02,.2,0,.44,.27,.58,.47,5.29,7.52,10.56,15.04,15.84,22.57,.05,.07,.06,.18,.15,.43Z"/>
</svg>